<svg width="1280" height="225" viewBox="0 0 1280 225" fill="none" xmlns="http://www.w3.org/2000/svg">
<g clip-path="url(#clip0_2671_3776)">
<path d="M0 20C0 8.9543 8.95431 0 20 0H1260C1271.05 0 1280 8.95431 1280 20V205C1280 216.046 1271.05 225 1260 225H20C8.95431 225 0 216.046 0 205V20Z" fill="#0F1832"/>
<g filter="url(#filter0_f_2671_3776)">
<path d="M1062.46 53.6321C670.717 -179.405 333.235 -43.4902 213.463 53.5969C183.817 175.462 464.053 266.45 607.877 296.712C922.634 312.784 1454.21 286.669 1062.46 53.6321Z" fill="#0231FF" fill-opacity="0.7"/>
</g>
<g filter="url(#filter1_f_2671_3776)">
<path d="M922.306 350.119C777.53 493.098 831.106 686.374 875.992 765.14C875.992 894.685 1324.56 863.498 1504.67 765.14C1684.78 666.783 1609.31 521.645 1615.31 350.119C1620.12 212.898 1423.48 168.198 1324.56 163C1250.8 165.799 1067.08 207.141 922.306 350.119Z" fill="#6C01DB"/>
</g>
<path d="M-863.165 -544.181C-859.655 -577.9 -823.242 -597.454 -793.194 -581.753L1716.64 729.65C1750.79 747.489 1751.06 796.256 1717.12 814.481L-1085.92 2319.65C-1119.86 2337.88 -1160.36 2310.71 -1156.37 2272.39L-863.165 -544.181Z" fill="#6F5AC8" fill-opacity="0.1"/>
<path d="M-863.165 -624.181C-859.655 -657.9 -823.242 -677.454 -793.194 -661.753L1716.64 649.65C1750.79 667.489 1751.06 716.256 1717.12 734.481L-1085.92 2239.65C-1119.86 2257.88 -1160.36 2230.71 -1156.37 2192.39L-863.165 -624.181Z" fill="#6F5AC8" fill-opacity="0.1"/>
<path d="M-863.165 -700.181C-859.655 -733.9 -823.242 -753.454 -793.194 -737.753L1716.64 573.65C1750.79 591.489 1751.06 640.256 1717.12 658.481L-1085.92 2163.65C-1119.86 2181.88 -1160.36 2154.71 -1156.37 2116.39L-863.165 -700.181Z" fill="#6F5AC8" fill-opacity="0.1"/>
<path d="M-863.165 -775.181C-859.655 -808.9 -823.242 -828.454 -793.194 -812.753L1716.64 498.65C1750.79 516.489 1751.06 565.256 1717.12 583.481L-1085.92 2088.65C-1119.86 2106.88 -1160.36 2079.71 -1156.37 2041.39L-863.165 -775.181Z" fill="#6F5AC8" fill-opacity="0.1"/>
<path d="M-863.165 -850.181C-859.655 -883.9 -823.242 -903.454 -793.194 -887.753L1716.64 423.65C1750.79 441.489 1751.06 490.256 1717.12 508.481L-1085.92 2013.65C-1119.86 2031.88 -1160.36 2004.71 -1156.37 1966.39L-863.165 -850.181Z" fill="#6F5AC8" fill-opacity="0.1"/>
<path d="M-724.802 -850.181C-721.291 -883.9 -684.878 -903.454 -654.831 -887.753L1855.01 423.65C1889.15 441.489 1889.42 490.256 1855.49 508.481L-947.554 2013.65C-981.493 2031.88 -1021.99 2004.71 -1018 1966.39L-724.802 -850.181Z" fill="#6F5AC8" fill-opacity="0.1"/>
<g filter="url(#filter2_f_2671_3776)">
<circle cx="-183" cy="-183" r="367" fill="#031150"/>
</g>
<g clip-path="url(#clip1_2671_3776)">
<path d="M48 57C48 50.3726 53.3726 45 60 45H116C122.627 45 128 50.3726 128 57V113C128 119.627 122.627 125 116 125H60C53.3726 125 48 119.627 48 113V57Z" fill="white"/>
<g clip-path="url(#clip2_2671_3776)">
<g clip-path="url(#clip3_2671_3776)">
<path d="M128 45H48V125H128V45Z" fill="#F7DF1E"/>
<path d="M101.74 107.509C103.351 110.14 105.448 112.074 109.156 112.074C112.271 112.074 114.261 110.518 114.261 108.366C114.261 105.789 112.216 104.876 108.788 103.376L106.908 102.57C101.484 100.259 97.8797 97.3633 97.8797 91.2427C97.8797 85.6046 102.176 81.3125 108.889 81.3125C113.669 81.3125 117.105 82.976 119.581 87.3315L113.727 91.0903C112.438 88.7792 111.048 87.8687 108.889 87.8687C106.687 87.8687 105.292 89.2655 105.292 91.0903C105.292 93.3455 106.689 94.2585 109.914 95.6554L111.793 96.4604C118.181 99.1995 121.787 101.992 121.787 108.27C121.787 115.038 116.47 118.746 109.33 118.746C102.348 118.746 97.8378 115.419 95.6308 111.059L101.74 107.509ZM75.1838 108.161C76.3648 110.256 77.4391 112.027 80.0219 112.027C82.4918 112.027 84.0499 111.061 84.0499 107.304V81.7417H91.5673V107.405C91.5673 115.189 87.0035 118.732 80.3419 118.732C74.3229 118.732 70.8372 115.617 69.0645 111.866L75.1838 108.161Z" fill="black"/>
</g>
</g>
</g>
<path d="M50.8764 147.818H55.6705L64.0057 168.17H64.3125L72.6477 147.818H77.4418V174H73.6832V155.054H73.4403L65.7188 173.962H62.5994L54.8778 155.041H54.6349V174H50.8764V147.818ZM91.1495 174.396C89.3086 174.396 87.7021 173.974 86.3299 173.131C84.9577 172.287 83.8924 171.107 83.1339 169.589C82.3754 168.072 81.9961 166.3 81.9961 164.271C81.9961 162.234 82.3754 160.453 83.1339 158.928C83.8924 157.402 84.9577 156.217 86.3299 155.374C87.7021 154.53 89.3086 154.108 91.1495 154.108C92.9904 154.108 94.5969 154.53 95.9691 155.374C97.3413 156.217 98.4066 157.402 99.1651 158.928C99.9237 160.453 100.303 162.234 100.303 164.271C100.303 166.3 99.9237 168.072 99.1651 169.589C98.4066 171.107 97.3413 172.287 95.9691 173.131C94.5969 173.974 92.9904 174.396 91.1495 174.396ZM91.1623 171.188C92.3555 171.188 93.3441 170.872 94.1282 170.241C94.9123 169.611 95.4918 168.771 95.8668 167.723C96.2504 166.675 96.4421 165.52 96.4421 164.259C96.4421 163.006 96.2504 161.855 95.8668 160.807C95.4918 159.75 94.9123 158.902 94.1282 158.263C93.3441 157.624 92.3555 157.304 91.1623 157.304C89.9606 157.304 88.9634 157.624 88.1708 158.263C87.3867 158.902 86.8029 159.75 86.4194 160.807C86.0444 161.855 85.8569 163.006 85.8569 164.259C85.8569 165.52 86.0444 166.675 86.4194 167.723C86.8029 168.771 87.3867 169.611 88.1708 170.241C88.9634 170.872 89.9606 171.188 91.1623 171.188ZM108.392 162.341V174H104.57V154.364H108.239V157.56H108.482C108.933 156.52 109.641 155.685 110.604 155.054C111.575 154.423 112.798 154.108 114.273 154.108C115.611 154.108 116.783 154.389 117.788 154.952C118.794 155.506 119.574 156.332 120.128 157.432C120.682 158.531 120.959 159.891 120.959 161.51V174H117.136V161.97C117.136 160.547 116.766 159.435 116.024 158.634C115.283 157.824 114.264 157.419 112.969 157.419C112.082 157.419 111.294 157.611 110.604 157.994C109.922 158.378 109.381 158.94 108.98 159.682C108.588 160.415 108.392 161.301 108.392 162.341ZM134.357 174.396C132.516 174.396 130.909 173.974 129.537 173.131C128.165 172.287 127.099 171.107 126.341 169.589C125.582 168.072 125.203 166.3 125.203 164.271C125.203 162.234 125.582 160.453 126.341 158.928C127.099 157.402 128.165 156.217 129.537 155.374C130.909 154.53 132.516 154.108 134.357 154.108C136.197 154.108 137.804 154.53 139.176 155.374C140.548 156.217 141.614 157.402 142.372 158.928C143.131 160.453 143.51 162.234 143.51 164.271C143.51 166.3 143.131 168.072 142.372 169.589C141.614 171.107 140.548 172.287 139.176 173.131C137.804 173.974 136.197 174.396 134.357 174.396ZM134.369 171.188C135.563 171.188 136.551 170.872 137.335 170.241C138.119 169.611 138.699 168.771 139.074 167.723C139.457 166.675 139.649 165.52 139.649 164.259C139.649 163.006 139.457 161.855 139.074 160.807C138.699 159.75 138.119 158.902 137.335 158.263C136.551 157.624 135.563 157.304 134.369 157.304C133.168 157.304 132.17 157.624 131.378 158.263C130.594 158.902 130.01 159.75 129.626 160.807C129.251 161.855 129.064 163.006 129.064 164.259C129.064 165.52 129.251 166.675 129.626 167.723C130.01 168.771 130.594 169.611 131.378 170.241C132.17 170.872 133.168 171.188 134.369 171.188ZM169.829 156.332H165.841C165.687 155.48 165.402 154.73 164.984 154.082C164.566 153.435 164.055 152.885 163.45 152.433C162.845 151.982 162.167 151.641 161.417 151.411C160.676 151.18 159.887 151.065 159.052 151.065C157.544 151.065 156.193 151.445 155 152.203C153.815 152.962 152.877 154.074 152.187 155.54C151.505 157.006 151.164 158.795 151.164 160.909C151.164 163.04 151.505 164.838 152.187 166.304C152.877 167.77 153.819 168.878 155.012 169.628C156.206 170.378 157.548 170.753 159.039 170.753C159.866 170.753 160.65 170.642 161.392 170.42C162.142 170.19 162.819 169.854 163.424 169.411C164.029 168.967 164.541 168.426 164.958 167.787C165.385 167.139 165.679 166.398 165.841 165.562L169.829 165.575C169.616 166.862 169.203 168.047 168.589 169.129C167.984 170.203 167.204 171.132 166.25 171.916C165.304 172.692 164.221 173.293 163.002 173.719C161.784 174.145 160.454 174.358 159.014 174.358C156.747 174.358 154.727 173.821 152.954 172.747C151.181 171.665 149.784 170.118 148.761 168.107C147.747 166.095 147.24 163.696 147.24 160.909C147.24 158.114 147.751 155.714 148.774 153.712C149.797 151.7 151.194 150.158 152.967 149.084C154.74 148.001 156.755 147.46 159.014 147.46C160.403 147.46 161.699 147.661 162.9 148.061C164.11 148.453 165.197 149.033 166.16 149.8C167.123 150.558 167.92 151.487 168.551 152.587C169.181 153.678 169.608 154.926 169.829 156.332ZM178.072 147.818V174H174.249V147.818H178.072ZM191.485 174.396C189.645 174.396 188.038 173.974 186.666 173.131C185.294 172.287 184.228 171.107 183.47 169.589C182.711 168.072 182.332 166.3 182.332 164.271C182.332 162.234 182.711 160.453 183.47 158.928C184.228 157.402 185.294 156.217 186.666 155.374C188.038 154.53 189.645 154.108 191.485 154.108C193.326 154.108 194.933 154.53 196.305 155.374C197.677 156.217 198.743 157.402 199.501 158.928C200.26 160.453 200.639 162.234 200.639 164.271C200.639 166.3 200.26 168.072 199.501 169.589C198.743 171.107 197.677 172.287 196.305 173.131C194.933 173.974 193.326 174.396 191.485 174.396ZM191.498 171.188C192.691 171.188 193.68 170.872 194.464 170.241C195.248 169.611 195.828 168.771 196.203 167.723C196.586 166.675 196.778 165.52 196.778 164.259C196.778 163.006 196.586 161.855 196.203 160.807C195.828 159.75 195.248 158.902 194.464 158.263C193.68 157.624 192.691 157.304 191.498 157.304C190.297 157.304 189.299 157.624 188.507 158.263C187.723 158.902 187.139 159.75 186.755 160.807C186.38 161.855 186.193 163.006 186.193 164.259C186.193 165.52 186.38 166.675 186.755 167.723C187.139 168.771 187.723 169.611 188.507 170.241C189.299 170.872 190.297 171.188 191.498 171.188ZM217.344 165.857V154.364H221.18V174H217.421V170.599H217.217C216.765 171.648 216.04 172.521 215.043 173.22C214.055 173.911 212.823 174.256 211.349 174.256C210.087 174.256 208.971 173.979 207.999 173.425C207.036 172.862 206.278 172.031 205.724 170.932C205.178 169.832 204.906 168.473 204.906 166.854V154.364H208.728V166.393C208.728 167.732 209.099 168.797 209.84 169.589C210.582 170.382 211.545 170.778 212.729 170.778C213.445 170.778 214.157 170.599 214.864 170.241C215.58 169.884 216.173 169.342 216.641 168.618C217.119 167.893 217.353 166.973 217.344 165.857ZM233.667 174.384C232.081 174.384 230.667 173.979 229.422 173.169C228.186 172.351 227.215 171.187 226.507 169.679C225.809 168.162 225.459 166.342 225.459 164.22C225.459 162.098 225.813 160.283 226.52 158.774C227.236 157.266 228.216 156.111 229.461 155.31C230.705 154.509 232.115 154.108 233.692 154.108C234.911 154.108 235.891 154.312 236.632 154.722C237.382 155.122 237.962 155.591 238.371 156.128C238.789 156.665 239.113 157.138 239.343 157.547H239.573V147.818H243.395V174H239.662V170.945H239.343C239.113 171.362 238.78 171.839 238.346 172.376C237.919 172.913 237.331 173.382 236.581 173.783C235.831 174.183 234.86 174.384 233.667 174.384ZM234.51 171.124C235.61 171.124 236.539 170.834 237.297 170.254C238.064 169.666 238.644 168.852 239.036 167.812C239.436 166.773 239.637 165.562 239.637 164.182C239.637 162.818 239.441 161.625 239.049 160.602C238.657 159.58 238.081 158.783 237.323 158.212C236.564 157.641 235.627 157.355 234.51 157.355C233.36 157.355 232.401 157.653 231.634 158.25C230.867 158.847 230.287 159.661 229.895 160.692C229.512 161.723 229.32 162.886 229.32 164.182C229.32 165.494 229.516 166.675 229.908 167.723C230.3 168.771 230.88 169.602 231.647 170.216C232.422 170.821 233.377 171.124 234.51 171.124ZM258.685 147.818H263.479L271.814 168.17H272.121L280.456 147.818H285.25V174H281.492V155.054H281.249L273.527 173.962H270.408L262.686 155.041H262.444V174H258.685V147.818ZM296.401 174.435C295.157 174.435 294.032 174.205 293.026 173.744C292.021 173.276 291.224 172.598 290.636 171.712C290.056 170.825 289.766 169.739 289.766 168.452C289.766 167.344 289.979 166.432 290.406 165.716C290.832 165 291.407 164.433 292.131 164.016C292.856 163.598 293.665 163.283 294.56 163.07C295.455 162.857 296.367 162.695 297.296 162.584C298.472 162.447 299.427 162.337 300.16 162.251C300.893 162.158 301.425 162.009 301.758 161.804C302.09 161.599 302.256 161.267 302.256 160.807V160.717C302.256 159.601 301.941 158.736 301.31 158.122C300.688 157.509 299.759 157.202 298.523 157.202C297.237 157.202 296.222 157.487 295.481 158.058C294.748 158.621 294.241 159.247 293.96 159.938L290.367 159.119C290.793 157.926 291.415 156.963 292.234 156.23C293.06 155.489 294.011 154.952 295.085 154.619C296.158 154.278 297.288 154.108 298.472 154.108C299.256 154.108 300.087 154.202 300.965 154.389C301.852 154.568 302.678 154.901 303.445 155.386C304.221 155.872 304.856 156.567 305.35 157.47C305.844 158.365 306.092 159.528 306.092 160.96V174H302.359V171.315H302.205C301.958 171.81 301.587 172.295 301.093 172.773C300.599 173.25 299.964 173.646 299.188 173.962C298.413 174.277 297.484 174.435 296.401 174.435ZM297.232 171.366C298.289 171.366 299.192 171.158 299.942 170.74C300.701 170.322 301.276 169.777 301.668 169.104C302.069 168.422 302.269 167.693 302.269 166.918V164.386C302.133 164.523 301.869 164.651 301.477 164.77C301.093 164.881 300.654 164.979 300.16 165.064C299.665 165.141 299.184 165.213 298.715 165.281C298.246 165.341 297.854 165.392 297.539 165.435C296.798 165.528 296.12 165.686 295.506 165.908C294.901 166.129 294.415 166.449 294.049 166.866C293.691 167.276 293.512 167.821 293.512 168.503C293.512 169.449 293.862 170.165 294.56 170.651C295.259 171.128 296.15 171.366 297.232 171.366ZM315.005 162.341V174H311.183V154.364H314.852V157.56H315.095C315.547 156.52 316.254 155.685 317.217 155.054C318.189 154.423 319.412 154.108 320.886 154.108C322.224 154.108 323.396 154.389 324.402 154.952C325.407 155.506 326.187 156.332 326.741 157.432C327.295 158.531 327.572 159.891 327.572 161.51V174H323.75V161.97C323.75 160.547 323.379 159.435 322.637 158.634C321.896 157.824 320.877 157.419 319.582 157.419C318.696 157.419 317.907 157.611 317.217 157.994C316.535 158.378 315.994 158.94 315.593 159.682C315.201 160.415 315.005 161.301 315.005 162.341ZM338.413 174.435C337.169 174.435 336.044 174.205 335.038 173.744C334.032 173.276 333.235 172.598 332.647 171.712C332.068 170.825 331.778 169.739 331.778 168.452C331.778 167.344 331.991 166.432 332.417 165.716C332.843 165 333.419 164.433 334.143 164.016C334.868 163.598 335.677 163.283 336.572 163.07C337.467 162.857 338.379 162.695 339.308 162.584C340.484 162.447 341.439 162.337 342.172 162.251C342.904 162.158 343.437 162.009 343.77 161.804C344.102 161.599 344.268 161.267 344.268 160.807V160.717C344.268 159.601 343.953 158.736 343.322 158.122C342.7 157.509 341.771 157.202 340.535 157.202C339.248 157.202 338.234 157.487 337.493 158.058C336.76 158.621 336.252 159.247 335.971 159.938L332.379 159.119C332.805 157.926 333.427 156.963 334.245 156.23C335.072 155.489 336.022 154.952 337.096 154.619C338.17 154.278 339.299 154.108 340.484 154.108C341.268 154.108 342.099 154.202 342.977 154.389C343.863 154.568 344.69 154.901 345.457 155.386C346.233 155.872 346.868 156.567 347.362 157.47C347.856 158.365 348.103 159.528 348.103 160.96V174H344.37V171.315H344.217C343.97 171.81 343.599 172.295 343.105 172.773C342.61 173.25 341.975 173.646 341.2 173.962C340.424 174.277 339.495 174.435 338.413 174.435ZM339.244 171.366C340.301 171.366 341.204 171.158 341.954 170.74C342.713 170.322 343.288 169.777 343.68 169.104C344.081 168.422 344.281 167.693 344.281 166.918V164.386C344.145 164.523 343.88 164.651 343.488 164.77C343.105 164.881 342.666 164.979 342.172 165.064C341.677 165.141 341.196 165.213 340.727 165.281C340.258 165.341 339.866 165.392 339.551 165.435C338.809 165.528 338.132 165.686 337.518 165.908C336.913 166.129 336.427 166.449 336.061 166.866C335.703 167.276 335.524 167.821 335.524 168.503C335.524 169.449 335.873 170.165 336.572 170.651C337.271 171.128 338.162 171.366 339.244 171.366ZM361.428 181.773C359.868 181.773 358.526 181.568 357.401 181.159C356.284 180.75 355.372 180.209 354.665 179.536C353.957 178.862 353.429 178.125 353.08 177.324L356.365 175.969C356.595 176.344 356.902 176.74 357.286 177.158C357.678 177.584 358.206 177.946 358.871 178.244C359.544 178.543 360.409 178.692 361.466 178.692C362.915 178.692 364.112 178.338 365.058 177.631C366.004 176.932 366.477 175.815 366.477 174.281V170.42H366.234C366.004 170.838 365.672 171.303 365.237 171.814C364.811 172.325 364.223 172.768 363.473 173.143C362.723 173.518 361.747 173.706 360.545 173.706C358.994 173.706 357.597 173.344 356.352 172.619C355.116 171.886 354.136 170.808 353.412 169.385C352.696 167.953 352.338 166.193 352.338 164.105C352.338 162.017 352.692 160.227 353.399 158.736C354.115 157.244 355.095 156.102 356.339 155.31C357.584 154.509 358.994 154.108 360.571 154.108C361.79 154.108 362.774 154.312 363.524 154.722C364.274 155.122 364.858 155.591 365.276 156.128C365.702 156.665 366.03 157.138 366.26 157.547H366.541V154.364H370.287V174.435C370.287 176.122 369.895 177.507 369.111 178.589C368.327 179.672 367.266 180.473 365.928 180.993C364.598 181.513 363.098 181.773 361.428 181.773ZM361.389 170.536C362.489 170.536 363.418 170.28 364.176 169.768C364.943 169.249 365.523 168.507 365.915 167.544C366.315 166.572 366.516 165.409 366.516 164.054C366.516 162.733 366.32 161.57 365.928 160.564C365.536 159.558 364.96 158.774 364.202 158.212C363.443 157.641 362.506 157.355 361.389 157.355C360.239 157.355 359.28 157.653 358.513 158.25C357.746 158.838 357.166 159.639 356.774 160.653C356.391 161.668 356.199 162.801 356.199 164.054C356.199 165.341 356.395 166.47 356.787 167.442C357.179 168.413 357.759 169.172 358.526 169.717C359.301 170.263 360.256 170.536 361.389 170.536ZM383.876 174.396C381.942 174.396 380.276 173.983 378.878 173.156C377.489 172.321 376.415 171.149 375.656 169.641C374.906 168.124 374.531 166.347 374.531 164.31C374.531 162.298 374.906 160.526 375.656 158.991C376.415 157.457 377.472 156.26 378.827 155.399C380.19 154.538 381.784 154.108 383.608 154.108C384.716 154.108 385.79 154.291 386.83 154.658C387.869 155.024 388.803 155.599 389.629 156.384C390.456 157.168 391.108 158.186 391.585 159.439C392.063 160.683 392.301 162.196 392.301 163.977V165.332H376.692V162.469H388.555C388.555 161.463 388.351 160.572 387.942 159.797C387.533 159.013 386.957 158.395 386.216 157.943C385.483 157.491 384.622 157.266 383.634 157.266C382.56 157.266 381.622 157.53 380.821 158.058C380.028 158.578 379.415 159.26 378.98 160.104C378.554 160.939 378.341 161.847 378.341 162.827V165.064C378.341 166.376 378.571 167.493 379.031 168.413C379.5 169.334 380.152 170.037 380.987 170.523C381.822 171 382.798 171.239 383.915 171.239C384.639 171.239 385.3 171.136 385.896 170.932C386.493 170.719 387.009 170.403 387.443 169.986C387.878 169.568 388.21 169.053 388.44 168.439L392.058 169.091C391.768 170.156 391.249 171.089 390.499 171.891C389.757 172.683 388.824 173.301 387.699 173.744C386.582 174.179 385.308 174.396 383.876 174.396ZM396.542 174V154.364H400.211V157.56H400.454C400.863 156.477 401.532 155.634 402.461 155.028C403.39 154.415 404.502 154.108 405.798 154.108C407.11 154.108 408.21 154.415 409.096 155.028C409.991 155.642 410.652 156.486 411.078 157.56H411.282C411.751 156.511 412.497 155.676 413.52 155.054C414.542 154.423 415.761 154.108 417.176 154.108C418.957 154.108 420.41 154.666 421.535 155.783C422.669 156.899 423.235 158.582 423.235 160.832V174H419.413V161.19C419.413 159.861 419.051 158.898 418.326 158.301C417.602 157.705 416.737 157.406 415.731 157.406C414.487 157.406 413.52 157.79 412.829 158.557C412.139 159.315 411.794 160.291 411.794 161.484V174H407.984V160.947C407.984 159.882 407.652 159.026 406.987 158.378C406.322 157.73 405.457 157.406 404.392 157.406C403.667 157.406 402.998 157.598 402.385 157.982C401.779 158.357 401.289 158.881 400.914 159.554C400.548 160.227 400.365 161.007 400.365 161.893V174H396.542ZM436.822 174.396C434.887 174.396 433.221 173.983 431.823 173.156C430.434 172.321 429.36 171.149 428.602 169.641C427.852 168.124 427.477 166.347 427.477 164.31C427.477 162.298 427.852 160.526 428.602 158.991C429.36 157.457 430.417 156.26 431.772 155.399C433.136 154.538 434.729 154.108 436.553 154.108C437.661 154.108 438.735 154.291 439.775 154.658C440.815 155.024 441.748 155.599 442.575 156.384C443.401 157.168 444.053 158.186 444.531 159.439C445.008 160.683 445.246 162.196 445.246 163.977V165.332H429.637V162.469H441.501C441.501 161.463 441.296 160.572 440.887 159.797C440.478 159.013 439.903 158.395 439.161 157.943C438.428 157.491 437.567 157.266 436.579 157.266C435.505 157.266 434.567 157.53 433.766 158.058C432.974 158.578 432.36 159.26 431.925 160.104C431.499 160.939 431.286 161.847 431.286 162.827V165.064C431.286 166.376 431.516 167.493 431.977 168.413C432.445 169.334 433.097 170.037 433.933 170.523C434.768 171 435.744 171.239 436.86 171.239C437.585 171.239 438.245 171.136 438.842 170.932C439.438 170.719 439.954 170.403 440.388 169.986C440.823 169.568 441.156 169.053 441.386 168.439L445.004 169.091C444.714 170.156 444.194 171.089 443.444 171.891C442.702 172.683 441.769 173.301 440.644 173.744C439.528 174.179 438.254 174.396 436.822 174.396ZM453.31 162.341V174H449.488V154.364H453.157V157.56H453.4C453.851 156.52 454.559 155.685 455.522 155.054C456.493 154.423 457.716 154.108 459.191 154.108C460.529 154.108 461.701 154.389 462.706 154.952C463.712 155.506 464.492 156.332 465.046 157.432C465.6 158.531 465.877 159.891 465.877 161.51V174H462.054V161.97C462.054 160.547 461.684 159.435 460.942 158.634C460.201 157.824 459.182 157.419 457.887 157.419C457 157.419 456.212 157.611 455.522 157.994C454.84 158.378 454.299 158.94 453.898 159.682C453.506 160.415 453.31 161.301 453.31 162.341ZM480.169 154.364V157.432H469.444V154.364H480.169ZM472.32 149.659H476.142V168.234C476.142 168.976 476.253 169.534 476.475 169.909C476.696 170.276 476.982 170.527 477.331 170.663C477.689 170.791 478.077 170.855 478.495 170.855C478.801 170.855 479.07 170.834 479.3 170.791C479.53 170.749 479.709 170.714 479.837 170.689L480.527 173.847C480.306 173.932 479.99 174.017 479.581 174.102C479.172 174.196 478.661 174.247 478.047 174.256C477.042 174.273 476.104 174.094 475.235 173.719C474.365 173.344 473.662 172.764 473.125 171.98C472.588 171.196 472.32 170.212 472.32 169.027V149.659ZM508.512 154.696C508.375 153.486 507.813 152.548 506.824 151.884C505.836 151.21 504.591 150.874 503.091 150.874C502.017 150.874 501.088 151.044 500.304 151.385C499.52 151.717 498.911 152.178 498.476 152.766C498.05 153.345 497.837 154.006 497.837 154.747C497.837 155.369 497.982 155.906 498.272 156.358C498.57 156.81 498.958 157.189 499.435 157.496C499.921 157.794 500.441 158.045 500.995 158.25C501.549 158.446 502.081 158.608 502.593 158.736L505.15 159.401C505.985 159.605 506.841 159.882 507.719 160.232C508.597 160.581 509.411 161.041 510.161 161.612C510.911 162.183 511.516 162.891 511.976 163.734C512.445 164.578 512.679 165.588 512.679 166.764C512.679 168.247 512.296 169.564 511.529 170.714C510.77 171.865 509.667 172.773 508.218 173.438C506.777 174.102 505.034 174.435 502.989 174.435C501.029 174.435 499.333 174.124 497.901 173.501C496.469 172.879 495.348 171.997 494.539 170.855C493.729 169.705 493.282 168.341 493.196 166.764H497.159C497.236 167.71 497.543 168.499 498.08 169.129C498.625 169.751 499.32 170.216 500.164 170.523C501.016 170.821 501.949 170.97 502.963 170.97C504.08 170.97 505.073 170.795 505.942 170.446C506.82 170.088 507.51 169.594 508.013 168.963C508.516 168.324 508.767 167.578 508.767 166.726C508.767 165.95 508.546 165.315 508.103 164.821C507.668 164.327 507.076 163.918 506.326 163.594C505.584 163.27 504.745 162.984 503.807 162.737L500.713 161.893C498.617 161.322 496.955 160.483 495.728 159.375C494.509 158.267 493.9 156.801 493.9 154.977C493.9 153.469 494.309 152.152 495.127 151.027C495.945 149.902 497.053 149.028 498.451 148.406C499.848 147.776 501.425 147.46 503.181 147.46C504.953 147.46 506.517 147.771 507.873 148.393C509.236 149.016 510.31 149.872 511.094 150.963C511.878 152.045 512.287 153.29 512.321 154.696H508.512ZM525.876 174H517.4V147.818H526.144C528.71 147.818 530.913 148.342 532.754 149.391C534.594 150.43 536.005 151.926 536.985 153.878C537.974 155.821 538.468 158.152 538.468 160.871C538.468 163.598 537.969 165.942 536.972 167.902C535.984 169.862 534.552 171.371 532.677 172.428C530.802 173.476 528.535 174 525.876 174ZM521.35 170.548H525.658C527.653 170.548 529.31 170.173 530.631 169.423C531.952 168.665 532.941 167.57 533.597 166.138C534.254 164.697 534.582 162.942 534.582 160.871C534.582 158.817 534.254 157.074 533.597 155.642C532.95 154.21 531.982 153.124 530.695 152.382C529.408 151.641 527.81 151.27 525.901 151.27H521.35V170.548ZM543.38 174V147.818H547.331V160.321H547.65L558.632 147.818H563.605L553.045 159.605L563.643 174H558.887L550.424 162.303L547.331 165.857V174H543.38ZM585.852 154.364V157.432H574.756V154.364H585.852ZM577.798 174V152.088C577.798 150.861 578.067 149.842 578.604 149.033C579.141 148.214 579.852 147.605 580.739 147.205C581.625 146.795 582.588 146.591 583.628 146.591C584.395 146.591 585.051 146.655 585.597 146.783C586.142 146.902 586.547 147.013 586.811 147.115L585.916 150.209C585.737 150.158 585.507 150.098 585.226 150.03C584.945 149.953 584.604 149.915 584.203 149.915C583.274 149.915 582.609 150.145 582.209 150.605C581.817 151.065 581.621 151.73 581.621 152.599V174H577.798ZM597.294 174.396C595.453 174.396 593.847 173.974 592.474 173.131C591.102 172.287 590.037 171.107 589.278 169.589C588.52 168.072 588.141 166.3 588.141 164.271C588.141 162.234 588.52 160.453 589.278 158.928C590.037 157.402 591.102 156.217 592.474 155.374C593.847 154.53 595.453 154.108 597.294 154.108C599.135 154.108 600.741 154.53 602.114 155.374C603.486 156.217 604.551 157.402 605.31 158.928C606.068 160.453 606.447 162.234 606.447 164.271C606.447 166.3 606.068 168.072 605.31 169.589C604.551 171.107 603.486 172.287 602.114 173.131C600.741 173.974 599.135 174.396 597.294 174.396ZM597.307 171.188C598.5 171.188 599.489 170.872 600.273 170.241C601.057 169.611 601.636 168.771 602.011 167.723C602.395 166.675 602.587 165.52 602.587 164.259C602.587 163.006 602.395 161.855 602.011 160.807C601.636 159.75 601.057 158.902 600.273 158.263C599.489 157.624 598.5 157.304 597.307 157.304C596.105 157.304 595.108 157.624 594.315 158.263C593.531 158.902 592.947 159.75 592.564 160.807C592.189 161.855 592.001 163.006 592.001 164.259C592.001 165.52 592.189 166.675 592.564 167.723C592.947 168.771 593.531 169.611 594.315 170.241C595.108 170.872 596.105 171.188 597.307 171.188ZM610.714 174V154.364H614.409V157.483H614.613C614.971 156.426 615.602 155.595 616.505 154.99C617.417 154.376 618.449 154.07 619.599 154.07C619.838 154.07 620.119 154.078 620.443 154.095C620.775 154.112 621.035 154.134 621.223 154.159V157.815C621.069 157.773 620.797 157.726 620.404 157.675C620.012 157.615 619.62 157.585 619.228 157.585C618.325 157.585 617.52 157.777 616.812 158.161C616.113 158.536 615.559 159.06 615.15 159.733C614.741 160.398 614.537 161.156 614.537 162.009V174H610.714ZM644.541 147.818H648.478V166.381C648.478 168.06 648.146 169.496 647.481 170.689C646.825 171.882 645.9 172.794 644.707 173.425C643.514 174.047 642.116 174.358 640.514 174.358C639.039 174.358 637.714 174.089 636.538 173.553C635.37 173.016 634.446 172.236 633.764 171.213C633.091 170.182 632.754 168.929 632.754 167.455H636.679C636.679 168.179 636.845 168.805 637.177 169.334C637.518 169.862 637.983 170.276 638.571 170.574C639.167 170.864 639.849 171.009 640.616 171.009C641.451 171.009 642.159 170.834 642.738 170.484C643.326 170.126 643.774 169.602 644.081 168.912C644.387 168.222 644.541 167.378 644.541 166.381V147.818ZM659.636 174.435C658.391 174.435 657.266 174.205 656.261 173.744C655.255 173.276 654.458 172.598 653.87 171.712C653.29 170.825 653.001 169.739 653.001 168.452C653.001 167.344 653.214 166.432 653.64 165.716C654.066 165 654.641 164.433 655.366 164.016C656.09 163.598 656.9 163.283 657.795 163.07C658.69 162.857 659.602 162.695 660.531 162.584C661.707 162.447 662.661 162.337 663.394 162.251C664.127 162.158 664.66 162.009 664.992 161.804C665.325 161.599 665.491 161.267 665.491 160.807V160.717C665.491 159.601 665.175 158.736 664.545 158.122C663.923 157.509 662.994 157.202 661.758 157.202C660.471 157.202 659.457 157.487 658.715 158.058C657.982 158.621 657.475 159.247 657.194 159.938L653.602 159.119C654.028 157.926 654.65 156.963 655.468 156.23C656.295 155.489 657.245 154.952 658.319 154.619C659.393 154.278 660.522 154.108 661.707 154.108C662.491 154.108 663.322 154.202 664.2 154.389C665.086 154.568 665.913 154.901 666.68 155.386C667.455 155.872 668.09 156.567 668.585 157.47C669.079 158.365 669.326 159.528 669.326 160.96V174H665.593V171.315H665.44C665.192 171.81 664.822 172.295 664.327 172.773C663.833 173.25 663.198 173.646 662.423 173.962C661.647 174.277 660.718 174.435 659.636 174.435ZM660.467 171.366C661.523 171.366 662.427 171.158 663.177 170.74C663.935 170.322 664.511 169.777 664.903 169.104C665.303 168.422 665.504 167.693 665.504 166.918V164.386C665.367 164.523 665.103 164.651 664.711 164.77C664.327 164.881 663.888 164.979 663.394 165.064C662.9 165.141 662.418 165.213 661.95 165.281C661.481 165.341 661.089 165.392 660.773 165.435C660.032 165.528 659.354 165.686 658.741 165.908C658.136 166.129 657.65 166.449 657.283 166.866C656.925 167.276 656.746 167.821 656.746 168.503C656.746 169.449 657.096 170.165 657.795 170.651C658.494 171.128 659.384 171.366 660.467 171.366ZM690.512 154.364L683.392 174H679.301L672.167 154.364H676.271L681.244 169.474H681.449L686.409 154.364H690.512ZM699.257 174.435C698.012 174.435 696.887 174.205 695.882 173.744C694.876 173.276 694.079 172.598 693.491 171.712C692.912 170.825 692.622 169.739 692.622 168.452C692.622 167.344 692.835 166.432 693.261 165.716C693.687 165 694.262 164.433 694.987 164.016C695.711 163.598 696.521 163.283 697.416 163.07C698.311 162.857 699.223 162.695 700.152 162.584C701.328 162.447 702.282 162.337 703.015 162.251C703.748 162.158 704.281 162.009 704.613 161.804C704.946 161.599 705.112 161.267 705.112 160.807V160.717C705.112 159.601 704.797 158.736 704.166 158.122C703.544 157.509 702.615 157.202 701.379 157.202C700.092 157.202 699.078 157.487 698.336 158.058C697.603 158.621 697.096 159.247 696.815 159.938L693.223 159.119C693.649 157.926 694.271 156.963 695.089 156.23C695.916 155.489 696.866 154.952 697.94 154.619C699.014 154.278 700.143 154.108 701.328 154.108C702.112 154.108 702.943 154.202 703.821 154.389C704.707 154.568 705.534 154.901 706.301 155.386C707.076 155.872 707.711 156.567 708.206 157.47C708.7 158.365 708.947 159.528 708.947 160.96V174H705.214V171.315H705.061C704.814 171.81 704.443 172.295 703.949 172.773C703.454 173.25 702.819 173.646 702.044 173.962C701.268 174.277 700.339 174.435 699.257 174.435ZM700.088 171.366C701.145 171.366 702.048 171.158 702.798 170.74C703.556 170.322 704.132 169.777 704.524 169.104C704.924 168.422 705.125 167.693 705.125 166.918V164.386C704.988 164.523 704.724 164.651 704.332 164.77C703.949 164.881 703.51 164.979 703.015 165.064C702.521 165.141 702.039 165.213 701.571 165.281C701.102 165.341 700.71 165.392 700.395 165.435C699.653 165.528 698.975 165.686 698.362 165.908C697.757 166.129 697.271 166.449 696.904 166.866C696.547 167.276 696.368 167.821 696.368 168.503C696.368 169.449 696.717 170.165 697.416 170.651C698.115 171.128 699.005 171.366 700.088 171.366ZM728.753 159.158L725.288 159.771C725.143 159.328 724.913 158.906 724.598 158.506C724.291 158.105 723.874 157.777 723.345 157.521C722.817 157.266 722.156 157.138 721.364 157.138C720.281 157.138 719.378 157.381 718.653 157.866C717.929 158.344 717.567 158.962 717.567 159.72C717.567 160.376 717.81 160.905 718.295 161.305C718.781 161.706 719.565 162.034 720.648 162.29L723.767 163.006C725.574 163.423 726.92 164.067 727.807 164.936C728.693 165.805 729.136 166.935 729.136 168.324C729.136 169.5 728.795 170.548 728.114 171.469C727.44 172.381 726.499 173.097 725.288 173.616C724.087 174.136 722.693 174.396 721.108 174.396C718.909 174.396 717.115 173.928 715.726 172.99C714.337 172.044 713.484 170.702 713.169 168.963L716.864 168.401C717.094 169.364 717.567 170.092 718.283 170.587C718.999 171.072 719.932 171.315 721.082 171.315C722.335 171.315 723.337 171.055 724.087 170.536C724.837 170.007 725.212 169.364 725.212 168.605C725.212 167.991 724.982 167.476 724.521 167.058C724.07 166.641 723.375 166.325 722.438 166.112L719.114 165.384C717.281 164.966 715.926 164.301 715.048 163.389C714.179 162.477 713.744 161.322 713.744 159.925C713.744 158.766 714.068 157.751 714.716 156.882C715.364 156.013 716.259 155.335 717.401 154.849C718.543 154.355 719.851 154.108 721.325 154.108C723.447 154.108 725.118 154.568 726.337 155.489C727.555 156.401 728.361 157.624 728.753 159.158ZM741.61 174.396C739.71 174.396 738.074 173.966 736.701 173.105C735.338 172.236 734.289 171.038 733.556 169.513C732.824 167.987 732.457 166.24 732.457 164.271C732.457 162.277 732.832 160.517 733.582 158.991C734.332 157.457 735.389 156.26 736.752 155.399C738.116 154.538 739.723 154.108 741.572 154.108C743.064 154.108 744.393 154.385 745.561 154.939C746.728 155.484 747.67 156.251 748.386 157.24C749.11 158.229 749.541 159.384 749.677 160.705H745.957C745.752 159.784 745.284 158.991 744.551 158.327C743.826 157.662 742.855 157.33 741.636 157.33C740.571 157.33 739.637 157.611 738.836 158.173C738.044 158.727 737.426 159.52 736.983 160.551C736.539 161.574 736.318 162.784 736.318 164.182C736.318 165.614 736.535 166.849 736.97 167.889C737.404 168.929 738.018 169.734 738.811 170.305C739.612 170.876 740.554 171.162 741.636 171.162C742.36 171.162 743.017 171.03 743.605 170.766C744.201 170.493 744.7 170.105 745.1 169.602C745.51 169.099 745.795 168.494 745.957 167.787H749.677C749.541 169.057 749.127 170.19 748.437 171.188C747.747 172.185 746.822 172.969 745.663 173.54C744.512 174.111 743.162 174.396 741.61 174.396ZM753.765 174V154.364H757.46V157.483H757.664C758.022 156.426 758.653 155.595 759.556 154.99C760.468 154.376 761.499 154.07 762.65 154.07C762.888 154.07 763.17 154.078 763.494 154.095C763.826 154.112 764.086 154.134 764.273 154.159V157.815C764.12 157.773 763.847 157.726 763.455 157.675C763.063 157.615 762.671 157.585 762.279 157.585C761.376 157.585 760.57 157.777 759.863 158.161C759.164 158.536 758.61 159.06 758.201 159.733C757.792 160.398 757.587 161.156 757.587 162.009V174H753.765ZM767.581 174V154.364H771.404V174H767.581ZM769.512 151.334C768.847 151.334 768.276 151.112 767.799 150.669C767.33 150.217 767.096 149.68 767.096 149.058C767.096 148.428 767.33 147.891 767.799 147.447C768.276 146.996 768.847 146.77 769.512 146.77C770.176 146.77 770.743 146.996 771.212 147.447C771.689 147.891 771.928 148.428 771.928 149.058C771.928 149.68 771.689 150.217 771.212 150.669C770.743 151.112 770.176 151.334 769.512 151.334ZM776.546 181.364V154.364H780.279V157.547H780.599C780.82 157.138 781.14 156.665 781.558 156.128C781.975 155.591 782.555 155.122 783.296 154.722C784.038 154.312 785.018 154.108 786.237 154.108C787.822 154.108 789.237 154.509 790.481 155.31C791.725 156.111 792.701 157.266 793.408 158.774C794.124 160.283 794.482 162.098 794.482 164.22C794.482 166.342 794.129 168.162 793.421 169.679C792.714 171.187 791.742 172.351 790.506 173.169C789.271 173.979 787.86 174.384 786.275 174.384C785.082 174.384 784.106 174.183 783.347 173.783C782.597 173.382 782.009 172.913 781.583 172.376C781.157 171.839 780.829 171.362 780.599 170.945H780.369V181.364H776.546ZM780.292 164.182C780.292 165.562 780.492 166.773 780.893 167.812C781.293 168.852 781.873 169.666 782.631 170.254C783.39 170.834 784.319 171.124 785.418 171.124C786.56 171.124 787.515 170.821 788.282 170.216C789.049 169.602 789.629 168.771 790.021 167.723C790.421 166.675 790.621 165.494 790.621 164.182C790.621 162.886 790.425 161.723 790.033 160.692C789.65 159.661 789.07 158.847 788.295 158.25C787.528 157.653 786.569 157.355 785.418 157.355C784.31 157.355 783.373 157.641 782.606 158.212C781.847 158.783 781.272 159.58 780.88 160.602C780.488 161.625 780.292 162.818 780.292 164.182ZM807.931 154.364V157.432H797.205V154.364H807.931ZM800.082 149.659H803.904V168.234C803.904 168.976 804.015 169.534 804.237 169.909C804.458 170.276 804.744 170.527 805.093 170.663C805.451 170.791 805.839 170.855 806.256 170.855C806.563 170.855 806.832 170.834 807.062 170.791C807.292 170.749 807.471 170.714 807.599 170.689L808.289 173.847C808.067 173.932 807.752 174.017 807.343 174.102C806.934 174.196 806.423 174.247 805.809 174.256C804.803 174.273 803.866 174.094 802.996 173.719C802.127 173.344 801.424 172.764 800.887 171.98C800.35 171.196 800.082 170.212 800.082 169.027V149.659Z" fill="#FCFCFC"/>
<g clip-path="url(#clip4_2671_3776)">
<path d="M1040.13 46.1648C1038.98 43.5466 1036.75 44.9284 1035.4 46.7466L1033.49 50.0557L1046.18 72.0011H1055L1040.13 46.1648Z" fill="url(#paint0_linear_2671_3776)"/>
<path d="M1024.13 42.8177C1022 40.2359 1017.87 39.2905 1014.78 40.7814C1013.29 41.4723 1012.05 42.545 1011.18 44.0359C1011.18 44.0541 995 71.9996 995 71.9996H1004.05L1018.09 48.0177L1019.25 45.9995C1019.47 45.6359 1021.93 41.5086 1024.13 42.8177Z" fill="url(#paint1_linear_2671_3776)"/>
<path d="M1013.84 67.4736C1014.33 68.2554 1018.11 75.1282 1018.67 75.6009C1020.96 76.6009 1022.53 72.7463 1023.49 71.2373L1017.64 61.0918L1013.84 67.4736Z" fill="url(#paint2_linear_2671_3776)"/>
<path d="M1031.96 61.0918L1025.33 72.6009C1025.33 72.6009 1022.47 78.6918 1019.87 77.5463C1021.31 79.1645 1023.44 80.0736 1025.6 80.0009C1028.09 79.8918 1030.38 78.5463 1031.65 76.3463L1036.27 68.3282C1036.22 68.2373 1032.02 61.1645 1031.96 61.0918Z" fill="url(#paint3_linear_2671_3776)"/>
<path d="M1037.8 42.6002C1035.47 39.8911 1031.24 39.182 1028.18 41.0365C1025.29 42.4911 1022.4 49.5456 1020.62 52.1275C1020.65 52.2002 1025.04 59.7638 1025.07 59.8365C1026.71 57.0002 1030.45 50.5093 1032.05 47.7456C1033.16 45.9275 1035.07 41.2911 1037.8 42.6002Z" fill="url(#paint4_linear_2671_3776)"/>
<path d="M1024.76 44.8543C1023.15 47.4361 1021.67 50.5997 1020.62 52.127L1019.38 49.9997C1020.16 48.5452 1022.62 44.0361 1024.76 44.8543Z" fill="url(#paint5_linear_2671_3776)"/>
<path d="M1085.45 54.3095C1084.31 54.2913 1083.18 54.5459 1082.16 55.055C1081.15 55.5641 1080.25 56.3277 1079.6 57.255C1078.96 56.3277 1078.09 55.5822 1077.09 55.0731C1076.09 54.564 1074.96 54.3095 1073.84 54.3277C1069.35 54.3277 1066.29 57.9459 1066.29 63.3095V71.9822H1069.75V63.3095C1069.75 59.8186 1071.29 57.7459 1073.87 57.7459C1076.45 57.7459 1077.93 59.8913 1077.93 63.3095V71.9822H1081.2V63.3095C1081.2 59.8186 1082.75 57.7459 1085.35 57.7459C1087.95 57.7459 1089.38 59.8913 1089.38 63.3095V71.9822H1092.84V63.3095C1092.85 57.9277 1089.89 54.3095 1085.45 54.3095Z" fill="white"/>
<path d="M1103.62 54.0195C1098.64 54.0195 1095 57.8014 1095 63.0014C1095 68.2014 1098.62 71.9832 1103.62 71.9832C1108.62 71.9832 1112.24 68.2014 1112.24 63.0014C1112.24 57.8014 1108.58 54.0195 1103.62 54.0195ZM1103.62 68.565C1100.56 68.565 1098.44 66.2923 1098.44 63.0014C1098.44 59.7104 1100.51 57.4377 1103.62 57.4377C1106.71 57.4377 1108.76 59.6741 1108.76 63.0014C1108.76 66.3286 1106.64 68.565 1103.62 68.565Z" fill="white"/>
<path d="M1122.4 54.3105C1117.87 54.3105 1114.46 58.1651 1114.46 63.2924V71.9651H1117.91V63.2924C1117.91 60.0742 1119.76 57.7287 1122.42 57.7287C1125.07 57.7287 1126.82 60.0742 1126.82 63.2924V71.9651H1130.27V63.2924C1130.31 58.1833 1126.91 54.3105 1122.4 54.3105Z" fill="white"/>
<path d="M1141 54.0195C1136.02 54.0195 1132.38 57.8014 1132.38 63.0014C1132.38 68.2014 1136 72.0014 1141 72.0014C1146 72.0014 1149.56 68.2195 1149.56 63.0195C1149.56 57.8195 1145.96 54.0195 1141 54.0195ZM1141 68.565C1137.95 68.565 1135.82 66.2923 1135.82 63.0014C1135.82 59.7104 1137.91 57.4377 1141 57.4377C1144.09 57.4377 1146.15 59.6741 1146.15 63.0014C1146.15 66.3286 1144.04 68.565 1141 68.565Z" fill="white"/>
<path d="M1160.51 68.5273C1159.8 68.5273 1159.09 68.4 1158.44 68.1091C1157.78 67.8364 1157.18 67.4182 1156.69 66.9091C1156.2 66.4 1155.82 65.7819 1155.56 65.1091C1155.31 64.4364 1155.22 63.7273 1155.26 63.0182C1155.22 62.3091 1155.31 61.6 1155.56 60.9273C1155.82 60.2546 1156.18 59.6364 1156.69 59.1273C1157.18 58.6182 1157.78 58.2 1158.44 57.9273C1159.09 57.6546 1159.8 57.5091 1160.51 57.5091C1161.55 57.4364 1162.58 57.7091 1163.44 58.2909C1164.29 58.8728 1164.95 59.7273 1165.26 60.7091H1168.8C1168.46 58.8 1167.42 57.0728 1165.89 55.8728C1164.36 54.6728 1162.46 54.0546 1160.51 54.1455C1159.35 54.1273 1158.2 54.3455 1157.11 54.8C1156.04 55.2364 1155.06 55.9091 1154.26 56.7455C1153.46 57.5819 1152.82 58.5637 1152.4 59.6546C1151.98 60.7455 1151.8 61.891 1151.86 63.0546C1151.82 64.2182 1152 65.3637 1152.42 66.4546C1152.84 67.5273 1153.46 68.5273 1154.27 69.3455C1155.07 70.1819 1156.06 70.8364 1157.13 71.291C1158.2 71.7455 1159.35 71.9637 1160.51 71.9637C1162.51 72.0364 1164.46 71.3819 1165.98 70.1091C1167.53 68.8364 1168.55 67.0546 1168.86 65.091H1165.35C1165.06 66.1273 1164.42 67.0364 1163.55 67.6728C1162.66 68.2728 1161.6 68.5819 1160.51 68.5273Z" fill="white"/>
<path d="M1174.45 48.3457H1171.18V71.8003H1174.45V48.3457Z" fill="white"/>
<path d="M1185.33 54.0195C1180.35 54.0195 1176.71 57.8014 1176.71 63.0014C1176.71 68.2014 1180.33 71.9832 1185.33 71.9832C1190.33 71.9832 1193.89 68.2014 1193.89 63.0014C1193.89 57.8014 1190.29 54.0195 1185.33 54.0195ZM1185.33 68.565C1182.27 68.565 1180.15 66.2923 1180.15 63.0014C1180.15 59.7104 1182.22 57.4377 1185.33 57.4377C1188.42 57.4377 1190.53 59.6923 1190.53 63.0014C1190.53 66.3104 1188.36 68.565 1185.33 68.565Z" fill="white"/>
<path d="M1208.64 63.0184C1208.64 66.2366 1206.69 68.5821 1204.15 68.5821C1201.6 68.5821 1199.55 66.2548 1199.55 63.0184V54.3457H1196.09V63.0184C1196.09 68.1275 1199.53 72.0002 1204.07 72.0002C1208.64 72.0002 1211.91 68.1275 1211.91 63.0184V54.3457H1208.64V63.0184Z" fill="white"/>
<path d="M1227.91 47.9824V55.9642C1226.42 54.637 1224.49 53.8915 1222.47 53.9097C1217.65 53.9097 1214.04 57.7642 1214.04 62.8915C1214.04 68.0188 1217.67 71.8733 1222.67 71.8733C1227.67 71.8733 1231.36 68.0915 1231.36 62.8915V47.9824H1227.91ZM1222.65 68.5642C1219.13 68.5642 1217.51 65.6915 1217.51 63.0006C1217.45 62.2915 1217.55 61.5824 1217.78 60.9097C1218.02 60.237 1218.38 59.6188 1218.87 59.0915C1219.36 58.5642 1219.95 58.1461 1220.6 57.8733C1221.25 57.5824 1221.96 57.437 1222.67 57.437C1223.38 57.437 1224.09 57.5824 1224.75 57.8733C1225.4 58.1642 1225.98 58.5824 1226.47 59.0915C1226.96 59.6188 1227.33 60.237 1227.56 60.9097C1227.8 61.5824 1227.89 62.2915 1227.84 63.0006C1227.84 65.7642 1226.24 68.5642 1222.65 68.5642Z" fill="white"/>
</g>
</g>
<defs>
<filter id="filter0_f_2671_3776" x="-88.7158" y="-375.049" width="1589.68" height="975.59" filterUnits="userSpaceOnUse" color-interpolation-filters="sRGB">
<feFlood flood-opacity="0" result="BackgroundImageFix"/>
<feBlend mode="normal" in="SourceGraphic" in2="BackgroundImageFix" result="shape"/>
<feGaussianBlur stdDeviation="150" result="effect1_foregroundBlur_2671_3776"/>
</filter>
<filter id="filter1_f_2671_3776" x="608" y="-57" width="1238" height="1128" filterUnits="userSpaceOnUse" color-interpolation-filters="sRGB">
<feFlood flood-opacity="0" result="BackgroundImageFix"/>
<feBlend mode="normal" in="SourceGraphic" in2="BackgroundImageFix" result="shape"/>
<feGaussianBlur stdDeviation="110" result="effect1_foregroundBlur_2671_3776"/>
</filter>
<filter id="filter2_f_2671_3776" x="-800" y="-800" width="1234" height="1234" filterUnits="userSpaceOnUse" color-interpolation-filters="sRGB">
<feFlood flood-opacity="0" result="BackgroundImageFix"/>
<feBlend mode="normal" in="SourceGraphic" in2="BackgroundImageFix" result="shape"/>
<feGaussianBlur stdDeviation="125" result="effect1_foregroundBlur_2671_3776"/>
</filter>
<linearGradient id="paint0_linear_2671_3776" x1="1023.23" y1="59.6703" x2="1071.37" y2="56.9658" gradientUnits="userSpaceOnUse">
<stop stop-color="#0586FD"/>
<stop offset="0.88" stop-color="#111FFF"/>
</linearGradient>
<linearGradient id="paint1_linear_2671_3776" x1="990.031" y1="84.277" x2="1042.16" y2="7.16322" gradientUnits="userSpaceOnUse">
<stop stop-color="#0586FD"/>
<stop offset="0.88" stop-color="#111FFF"/>
</linearGradient>
<linearGradient id="paint2_linear_2671_3776" x1="992.557" y1="90.2196" x2="1061.97" y2="32.7367" gradientUnits="userSpaceOnUse">
<stop stop-color="#0586FD"/>
<stop offset="0.88" stop-color="#111FFF"/>
</linearGradient>
<linearGradient id="paint3_linear_2671_3776" x1="1006.62" y1="91.753" x2="1058.09" y2="45.1602" gradientUnits="userSpaceOnUse">
<stop stop-color="#0586FD"/>
<stop offset="0.88" stop-color="#111FFF"/>
</linearGradient>
<linearGradient id="paint4_linear_2671_3776" x1="1021.11" y1="63.3363" x2="1040.6" y2="24.9083" gradientUnits="userSpaceOnUse">
<stop stop-color="#0586FD"/>
<stop offset="0.88" stop-color="#111FFF"/>
</linearGradient>
<linearGradient id="paint5_linear_2671_3776" x1="965.111" y1="89.4959" x2="1058.67" y2="22.0912" gradientUnits="userSpaceOnUse">
<stop stop-color="#0586FD"/>
<stop offset="0.88" stop-color="#111FFF"/>
</linearGradient>
<clipPath id="clip0_2671_3776">
<path d="M0 20C0 8.9543 8.95431 0 20 0H1260C1271.05 0 1280 8.95431 1280 20V205C1280 216.046 1271.05 225 1260 225H20C8.95431 225 0 216.046 0 205V20Z" fill="white"/>
</clipPath>
<clipPath id="clip1_2671_3776">
<path d="M48 57C48 50.3726 53.3726 45 60 45H116C122.627 45 128 50.3726 128 57V113C128 119.627 122.627 125 116 125H60C53.3726 125 48 119.627 48 113V57Z" fill="white"/>
</clipPath>
<clipPath id="clip2_2671_3776">
<rect width="80" height="80" fill="white" transform="translate(48 45)"/>
</clipPath>
<clipPath id="clip3_2671_3776">
<rect width="80" height="80" fill="white" transform="translate(48 45)"/>
</clipPath>
<clipPath id="clip4_2671_3776">
<rect width="236.364" height="40" fill="white" transform="translate(995 40)"/>
</clipPath>
</defs>
</svg>
